<svg width="1440" height="789" viewBox="0 0 1440 789" fill="none" xmlns="http://www.w3.org/2000/svg">
<g opacity="0.05">
<path opacity="0.91" d="M275.117 174.125C-60.0647 -119.596 -178.262 45.4698 -186.528 58.0502C-186.874 58.577 -186.997 59.124 -186.991 59.7544L-183.061 482.638C-181.901 607.457 -81.271 709.781 40.5524 682.575C179.056 651.644 341.425 580.378 397.401 416.846C451.187 259.713 301.966 197.652 275.117 174.125Z" fill="#5E80D6"/>
</g>
<g opacity="0.91" filter="url(#filter0_d_31_12075)">
<path d="M1220.32 520.566C1183.91 677.701 1201.61 761.565 1229.87 806.282C1258.11 850.97 1297.06 856.794 1303.77 857.477C1304.27 857.528 1304.71 857.418 1305.24 857.128L1485.21 758.567C1550.56 722.775 1596.87 662.154 1612.19 599.048C1627.5 535.979 1611.87 470.448 1553.37 424.59C1493.12 377.362 1418.76 344.604 1333.89 358.464C1304.05 363.337 1282.45 374.301 1266.72 388.358C1250.98 402.421 1241.07 419.626 1234.68 437.053C1228.3 454.485 1225.45 472.119 1223.83 487.014C1223.19 492.849 1222.75 498.253 1222.35 503.065C1222.24 504.396 1222.14 505.682 1222.03 506.919C1221.55 512.599 1221.08 517.3 1220.32 520.566Z" stroke="#4F4F4F" stroke-width="2"/>
</g>
<mask id="mask0_31_12075" style="mask-type:alpha" maskUnits="userSpaceOnUse" x="-20" y="538" width="362" height="390">
<path opacity="0.69" d="M260.682 643.312C60.4858 468.095 -12.2673 562.01 -19.407 572.441C-19.834 573.065 -19.9963 573.746 -19.9892 574.502L-18.8363 698.403C-17.4447 847.951 113.604 983.175 240.673 904.308C282.152 878.563 317.283 842.121 334.955 790.556C367.623 695.233 276.99 657.585 260.682 643.312Z" fill="#25356A" fill-opacity="0.35"/>
</mask>
<g mask="url(#mask0_31_12075)">
<circle cx="-0.953357" cy="533.072" r="5.07203" fill="#25356A" fill-opacity="0.35"/>
<circle cx="15.9534" cy="533.072" r="5.07203" fill="#25356A" fill-opacity="0.35"/>
<circle cx="32.8601" cy="533.072" r="5.07203" fill="#25356A" fill-opacity="0.35"/>
<circle cx="49.7669" cy="533.072" r="5.07203" fill="#25356A" fill-opacity="0.35"/>
<circle cx="66.6736" cy="533.072" r="5.07203" fill="#25356A" fill-opacity="0.35"/>
<circle cx="83.5803" cy="533.072" r="5.07203" fill="#25356A" fill-opacity="0.35"/>
<circle cx="100.487" cy="533.072" r="5.07203" fill="#25356A" fill-opacity="0.35"/>
<circle cx="117.394" cy="533.072" r="5.07203" fill="#25356A" fill-opacity="0.35"/>
<circle cx="134.301" cy="533.072" r="5.07203" fill="#25356A" fill-opacity="0.35"/>
<circle cx="151.208" cy="533.072" r="5.07203" fill="#25356A" fill-opacity="0.35"/>
<circle cx="168.115" cy="533.072" r="5.07203" fill="#25356A" fill-opacity="0.35"/>
<circle cx="185.021" cy="533.072" r="5.07203" fill="#25356A" fill-opacity="0.35"/>
<circle cx="201.928" cy="533.072" r="5.07203" fill="#25356A" fill-opacity="0.35"/>
<circle cx="218.835" cy="533.072" r="5.07203" fill="#25356A" fill-opacity="0.35"/>
<circle cx="235.741" cy="533.072" r="5.07203" fill="#25356A" fill-opacity="0.35"/>
<circle cx="252.648" cy="533.072" r="5.07203" fill="#25356A" fill-opacity="0.35"/>
<circle cx="269.555" cy="533.072" r="5.07203" fill="#25356A" fill-opacity="0.35"/>
<circle cx="286.462" cy="533.072" r="5.07203" fill="#25356A" fill-opacity="0.35"/>
<circle cx="303.368" cy="533.072" r="5.07203" fill="#25356A" fill-opacity="0.35"/>
<circle cx="320.276" cy="533.072" r="5.07203" fill="#25356A" fill-opacity="0.35"/>
<circle cx="337.182" cy="533.072" r="5.07203" fill="#25356A" fill-opacity="0.35"/>
<circle cx="15.9534" cy="549.979" r="5.07203" fill="#25356A" fill-opacity="0.35"/>
<circle cx="32.8601" cy="549.979" r="5.07203" fill="#25356A" fill-opacity="0.35"/>
<circle cx="49.7669" cy="549.979" r="5.07203" fill="#25356A" fill-opacity="0.35"/>
<circle cx="66.6736" cy="549.979" r="5.07203" fill="#25356A" fill-opacity="0.35"/>
<circle cx="83.5803" cy="549.979" r="5.07203" fill="#25356A" fill-opacity="0.35"/>
<circle cx="134.301" cy="549.979" r="5.07203" fill="#25356A" fill-opacity="0.35"/>
<circle cx="151.208" cy="549.979" r="5.07203" fill="#25356A" fill-opacity="0.35"/>
<circle cx="168.115" cy="549.979" r="5.07203" fill="#25356A" fill-opacity="0.35"/>
<circle cx="185.021" cy="549.979" r="5.07203" fill="#25356A" fill-opacity="0.35"/>
<circle cx="201.928" cy="549.979" r="5.07203" fill="#25356A" fill-opacity="0.35"/>
<circle cx="218.835" cy="549.979" r="5.07203" fill="#25356A" fill-opacity="0.35"/>
<circle cx="235.741" cy="549.979" r="5.07203" fill="#25356A" fill-opacity="0.35"/>
<circle cx="252.648" cy="549.979" r="5.07203" fill="#25356A" fill-opacity="0.35"/>
<circle cx="269.555" cy="549.979" r="5.07203" fill="#25356A" fill-opacity="0.35"/>
<circle cx="286.462" cy="549.979" r="5.07203" fill="#25356A" fill-opacity="0.35"/>
<circle cx="303.368" cy="549.979" r="5.07203" fill="#25356A" fill-opacity="0.35"/>
<circle cx="320.276" cy="549.979" r="5.07203" fill="#25356A" fill-opacity="0.35"/>
<circle cx="337.182" cy="549.979" r="5.07203" fill="#25356A" fill-opacity="0.35"/>
<circle cx="-0.953357" cy="566.885" r="5.07203" fill="#25356A" fill-opacity="0.35"/>
<circle cx="15.9534" cy="566.885" r="5.07203" fill="#25356A" fill-opacity="0.35"/>
<circle cx="32.8601" cy="566.885" r="5.07203" fill="#25356A" fill-opacity="0.35"/>
<circle cx="49.7669" cy="566.885" r="5.07203" fill="#25356A" fill-opacity="0.35"/>
<circle cx="66.6736" cy="566.885" r="5.07203" fill="#25356A" fill-opacity="0.35"/>
<circle cx="83.5803" cy="566.885" r="5.07203" fill="#25356A" fill-opacity="0.35"/>
<circle cx="100.487" cy="566.885" r="5.07203" fill="#25356A" fill-opacity="0.35"/>
<circle cx="117.394" cy="566.885" r="5.07203" fill="#25356A" fill-opacity="0.35"/>
<circle cx="134.301" cy="566.885" r="5.07203" fill="#25356A" fill-opacity="0.35"/>
<circle cx="168.115" cy="566.885" r="5.07203" fill="#25356A" fill-opacity="0.35"/>
<circle cx="185.021" cy="566.885" r="5.07203" fill="#25356A" fill-opacity="0.35"/>
<circle cx="201.928" cy="566.885" r="5.07203" fill="#25356A" fill-opacity="0.35"/>
<circle cx="218.835" cy="566.885" r="5.07203" fill="#25356A" fill-opacity="0.35"/>
<circle cx="235.741" cy="566.885" r="5.07203" fill="#25356A" fill-opacity="0.35"/>
<circle cx="252.648" cy="566.885" r="5.07203" fill="#25356A" fill-opacity="0.35"/>
<circle cx="269.555" cy="566.885" r="5.07203" fill="#25356A" fill-opacity="0.35"/>
<circle cx="286.462" cy="566.885" r="5.07203" fill="#25356A" fill-opacity="0.35"/>
<circle cx="303.368" cy="566.885" r="5.07203" fill="#25356A" fill-opacity="0.35"/>
<circle cx="320.276" cy="566.885" r="5.07203" fill="#25356A" fill-opacity="0.35"/>
<circle cx="337.182" cy="566.885" r="5.07203" fill="#25356A" fill-opacity="0.35"/>
<circle cx="-0.953357" cy="583.792" r="5.07203" fill="#25356A" fill-opacity="0.35"/>
<circle cx="15.9534" cy="583.792" r="5.07203" fill="#25356A" fill-opacity="0.35"/>
<circle cx="32.8601" cy="583.792" r="5.07203" fill="#25356A" fill-opacity="0.35"/>
<circle cx="49.7669" cy="583.792" r="5.07203" fill="#25356A" fill-opacity="0.35"/>
<circle cx="66.6736" cy="583.792" r="5.07203" fill="#25356A" fill-opacity="0.35"/>
<circle cx="83.5803" cy="583.792" r="5.07203" fill="#25356A" fill-opacity="0.35"/>
<circle cx="100.487" cy="583.792" r="5.07203" fill="#25356A" fill-opacity="0.35"/>
<circle cx="117.394" cy="583.792" r="5.07203" fill="#25356A" fill-opacity="0.35"/>
<circle cx="134.301" cy="583.792" r="5.07203" fill="#25356A" fill-opacity="0.35"/>
<circle cx="151.208" cy="583.792" r="5.07203" fill="#25356A" fill-opacity="0.35"/>
<circle cx="168.115" cy="583.792" r="5.07203" fill="#25356A" fill-opacity="0.35"/>
<circle cx="201.928" cy="583.792" r="5.07203" fill="#25356A" fill-opacity="0.35"/>
<circle cx="218.835" cy="583.792" r="5.07203" fill="#25356A" fill-opacity="0.35"/>
<circle cx="235.741" cy="583.792" r="5.07203" fill="#25356A" fill-opacity="0.35"/>
<circle cx="252.648" cy="583.792" r="5.07203" fill="#25356A" fill-opacity="0.35"/>
<circle cx="269.555" cy="583.792" r="5.07203" fill="#25356A" fill-opacity="0.35"/>
<circle cx="286.462" cy="583.792" r="5.07203" fill="#25356A" fill-opacity="0.35"/>
<circle cx="303.368" cy="583.792" r="5.07203" fill="#25356A" fill-opacity="0.35"/>
<circle cx="320.276" cy="583.792" r="5.07203" fill="#25356A" fill-opacity="0.35"/>
<circle cx="337.182" cy="583.792" r="5.07203" fill="#25356A" fill-opacity="0.35"/>
<circle cx="-0.953357" cy="600.699" r="5.07203" fill="#25356A" fill-opacity="0.35"/>
<circle cx="15.9534" cy="600.699" r="5.07203" fill="#25356A" fill-opacity="0.35"/>
<circle cx="32.8601" cy="600.699" r="5.07203" fill="#25356A" fill-opacity="0.35"/>
<circle cx="49.7669" cy="600.699" r="5.07203" fill="#25356A" fill-opacity="0.35"/>
<circle cx="66.6736" cy="600.699" r="5.07203" fill="#25356A" fill-opacity="0.35"/>
<circle cx="83.5803" cy="600.699" r="5.07203" fill="#25356A" fill-opacity="0.35"/>
<circle cx="100.487" cy="600.699" r="5.07203" fill="#25356A" fill-opacity="0.35"/>
<circle cx="117.394" cy="600.699" r="5.07203" fill="#25356A" fill-opacity="0.35"/>
<circle cx="134.301" cy="600.699" r="5.07203" fill="#25356A" fill-opacity="0.35"/>
<circle cx="151.208" cy="600.699" r="5.07203" fill="#25356A" fill-opacity="0.35"/>
<circle cx="168.115" cy="600.699" r="5.07203" fill="#25356A" fill-opacity="0.35"/>
<circle cx="185.021" cy="600.699" r="5.07203" fill="#25356A" fill-opacity="0.35"/>
<circle cx="218.835" cy="600.699" r="5.07203" fill="#25356A" fill-opacity="0.35"/>
<circle cx="235.741" cy="600.699" r="5.07203" fill="#25356A" fill-opacity="0.35"/>
<circle cx="252.648" cy="600.699" r="5.07203" fill="#25356A" fill-opacity="0.35"/>
<circle cx="269.555" cy="600.699" r="5.07203" fill="#25356A" fill-opacity="0.35"/>
<circle cx="286.462" cy="600.699" r="5.07203" fill="#25356A" fill-opacity="0.35"/>
<circle cx="303.368" cy="600.699" r="5.07203" fill="#25356A" fill-opacity="0.35"/>
<circle cx="320.276" cy="600.699" r="5.07203" fill="#25356A" fill-opacity="0.35"/>
<circle cx="337.182" cy="600.699" r="5.07203" fill="#25356A" fill-opacity="0.35"/>
<circle cx="-0.953357" cy="617.606" r="5.07203" fill="#25356A" fill-opacity="0.35"/>
<circle cx="15.9534" cy="617.606" r="5.07203" fill="#25356A" fill-opacity="0.35"/>
<circle cx="32.8601" cy="617.606" r="5.07203" fill="#25356A" fill-opacity="0.35"/>
<circle cx="49.7669" cy="617.606" r="5.07203" fill="#25356A" fill-opacity="0.35"/>
<circle cx="66.6736" cy="617.606" r="5.07203" fill="#25356A" fill-opacity="0.35"/>
<circle cx="83.5803" cy="617.606" r="5.07203" fill="#25356A" fill-opacity="0.35"/>
<circle cx="100.487" cy="617.606" r="5.07203" fill="#25356A" fill-opacity="0.35"/>
<circle cx="117.394" cy="617.606" r="5.07203" fill="#25356A" fill-opacity="0.35"/>
<circle cx="134.301" cy="617.606" r="5.07203" fill="#25356A" fill-opacity="0.35"/>
<circle cx="151.208" cy="617.606" r="5.07203" fill="#25356A" fill-opacity="0.35"/>
<circle cx="168.115" cy="617.606" r="5.07203" fill="#25356A" fill-opacity="0.35"/>
<circle cx="185.021" cy="617.606" r="5.07203" fill="#25356A" fill-opacity="0.35"/>
<circle cx="201.928" cy="617.606" r="5.07203" fill="#25356A" fill-opacity="0.35"/>
<circle cx="218.835" cy="617.606" r="5.07203" fill="#25356A" fill-opacity="0.35"/>
<circle cx="252.648" cy="617.606" r="5.07203" fill="#25356A" fill-opacity="0.35"/>
<circle cx="269.555" cy="617.606" r="5.07203" fill="#25356A" fill-opacity="0.35"/>
<circle cx="286.462" cy="617.606" r="5.07203" fill="#25356A" fill-opacity="0.35"/>
<circle cx="303.368" cy="617.606" r="5.07203" fill="#25356A" fill-opacity="0.35"/>
<circle cx="320.276" cy="617.606" r="5.07203" fill="#25356A" fill-opacity="0.35"/>
<circle cx="337.182" cy="617.606" r="5.07203" fill="#25356A" fill-opacity="0.35"/>
<circle cx="-0.953357" cy="634.513" r="5.07203" fill="#25356A" fill-opacity="0.35"/>
<circle cx="15.9534" cy="634.513" r="5.07203" fill="#25356A" fill-opacity="0.35"/>
<circle cx="32.8601" cy="634.513" r="5.07203" fill="#25356A" fill-opacity="0.35"/>
<circle cx="49.7669" cy="634.513" r="5.07203" fill="#25356A" fill-opacity="0.35"/>
<circle cx="66.6736" cy="634.513" r="5.07203" fill="#25356A" fill-opacity="0.35"/>
<circle cx="83.5803" cy="634.513" r="5.07203" fill="#25356A" fill-opacity="0.35"/>
<circle cx="100.487" cy="634.513" r="5.07203" fill="#25356A" fill-opacity="0.35"/>
<circle cx="117.394" cy="634.513" r="5.07203" fill="#25356A" fill-opacity="0.35"/>
<circle cx="134.301" cy="634.513" r="5.07203" fill="#25356A" fill-opacity="0.35"/>
<circle cx="151.208" cy="634.513" r="5.07203" fill="#25356A" fill-opacity="0.35"/>
<circle cx="168.115" cy="634.513" r="5.07203" fill="#25356A" fill-opacity="0.35"/>
<circle cx="185.021" cy="634.513" r="5.07203" fill="#25356A" fill-opacity="0.35"/>
<circle cx="201.928" cy="634.513" r="5.07203" fill="#25356A" fill-opacity="0.35"/>
<circle cx="218.835" cy="634.513" r="5.07203" fill="#25356A" fill-opacity="0.35"/>
<circle cx="235.741" cy="634.513" r="5.07203" fill="#25356A" fill-opacity="0.35"/>
<circle cx="269.555" cy="634.513" r="5.07203" fill="#25356A" fill-opacity="0.35"/>
<circle cx="286.462" cy="634.513" r="5.07203" fill="#25356A" fill-opacity="0.35"/>
<circle cx="303.368" cy="634.513" r="5.07203" fill="#25356A" fill-opacity="0.35"/>
<circle cx="320.276" cy="634.513" r="5.07203" fill="#25356A" fill-opacity="0.35"/>
<circle cx="337.182" cy="634.513" r="5.07203" fill="#25356A" fill-opacity="0.35"/>
<circle cx="-0.953357" cy="651.419" r="5.07203" fill="#25356A" fill-opacity="0.35"/>
<circle cx="15.9534" cy="651.419" r="5.07203" fill="#25356A" fill-opacity="0.35"/>
<circle cx="32.8601" cy="651.419" r="5.07203" fill="#25356A" fill-opacity="0.35"/>
<circle cx="49.7669" cy="651.419" r="5.07203" fill="#25356A" fill-opacity="0.35"/>
<circle cx="66.6736" cy="651.419" r="5.07203" fill="#25356A" fill-opacity="0.35"/>
<circle cx="83.5803" cy="651.419" r="5.07203" fill="#25356A" fill-opacity="0.35"/>
<circle cx="100.487" cy="651.419" r="5.07203" fill="#25356A" fill-opacity="0.35"/>
<circle cx="117.394" cy="651.419" r="5.07203" fill="#25356A" fill-opacity="0.35"/>
<circle cx="134.301" cy="651.419" r="5.07203" fill="#25356A" fill-opacity="0.35"/>
<circle cx="151.208" cy="651.419" r="5.07203" fill="#25356A" fill-opacity="0.35"/>
<circle cx="168.115" cy="651.419" r="5.07203" fill="#25356A" fill-opacity="0.35"/>
<circle cx="185.021" cy="651.419" r="5.07203" fill="#25356A" fill-opacity="0.35"/>
<circle cx="201.928" cy="651.419" r="5.07203" fill="#25356A" fill-opacity="0.35"/>
<circle cx="218.835" cy="651.419" r="5.07203" fill="#25356A" fill-opacity="0.35"/>
<circle cx="235.741" cy="651.419" r="5.07203" fill="#25356A" fill-opacity="0.35"/>
<circle cx="252.648" cy="651.419" r="5.07203" fill="#25356A" fill-opacity="0.35"/>
<circle cx="286.462" cy="651.419" r="5.07203" fill="#25356A" fill-opacity="0.35"/>
<circle cx="303.368" cy="651.419" r="5.07203" fill="#25356A" fill-opacity="0.35"/>
<circle cx="320.276" cy="651.419" r="5.07203" fill="#25356A" fill-opacity="0.35"/>
<circle cx="337.182" cy="651.419" r="5.07203" fill="#25356A" fill-opacity="0.35"/>
<circle cx="-0.953357" cy="668.326" r="5.07203" fill="#25356A" fill-opacity="0.35"/>
<circle cx="15.9534" cy="668.326" r="5.07203" fill="#25356A" fill-opacity="0.35"/>
<circle cx="32.8601" cy="668.326" r="5.07203" fill="#25356A" fill-opacity="0.35"/>
<circle cx="49.7669" cy="668.326" r="5.07203" fill="#25356A" fill-opacity="0.35"/>
<circle cx="66.6736" cy="668.326" r="5.07203" fill="#25356A" fill-opacity="0.35"/>
<circle cx="83.5803" cy="668.326" r="5.07203" fill="#25356A" fill-opacity="0.35"/>
<circle cx="100.487" cy="668.326" r="5.07203" fill="#25356A" fill-opacity="0.35"/>
<circle cx="117.394" cy="668.326" r="5.07203" fill="#25356A" fill-opacity="0.35"/>
<circle cx="134.301" cy="668.326" r="5.07203" fill="#25356A" fill-opacity="0.35"/>
<circle cx="151.208" cy="668.326" r="5.07203" fill="#25356A" fill-opacity="0.35"/>
<circle cx="168.115" cy="668.326" r="5.07203" fill="#25356A" fill-opacity="0.35"/>
<circle cx="185.021" cy="668.326" r="5.07203" fill="#25356A" fill-opacity="0.35"/>
<circle cx="201.928" cy="668.326" r="5.07203" fill="#25356A" fill-opacity="0.35"/>
<circle cx="218.835" cy="668.326" r="5.07203" fill="#25356A" fill-opacity="0.35"/>
<circle cx="235.741" cy="668.326" r="5.07203" fill="#25356A" fill-opacity="0.35"/>
<circle cx="252.648" cy="668.326" r="5.07203" fill="#25356A" fill-opacity="0.35"/>
<circle cx="269.555" cy="668.326" r="5.07203" fill="#25356A" fill-opacity="0.35"/>
<circle cx="286.462" cy="668.326" r="5.07203" fill="#25356A" fill-opacity="0.35"/>
<circle cx="320.276" cy="668.326" r="5.07203" fill="#25356A" fill-opacity="0.35"/>
<circle cx="337.182" cy="668.326" r="5.07203" fill="#25356A" fill-opacity="0.35"/>
<circle cx="-0.953357" cy="685.233" r="5.07203" fill="#25356A" fill-opacity="0.35"/>
<circle cx="15.9534" cy="685.233" r="5.07203" fill="#25356A" fill-opacity="0.35"/>
<circle cx="32.8601" cy="685.233" r="5.07203" fill="#25356A" fill-opacity="0.35"/>
<circle cx="49.7669" cy="685.233" r="5.07203" fill="#25356A" fill-opacity="0.35"/>
<circle cx="66.6736" cy="685.233" r="5.07203" fill="#25356A" fill-opacity="0.35"/>
<circle cx="83.5803" cy="685.233" r="5.07203" fill="#25356A" fill-opacity="0.35"/>
<circle cx="100.487" cy="685.233" r="5.07203" fill="#25356A" fill-opacity="0.35"/>
<circle cx="117.394" cy="685.233" r="5.07203" fill="#25356A" fill-opacity="0.35"/>
<circle cx="134.301" cy="685.233" r="5.07203" fill="#25356A" fill-opacity="0.35"/>
<circle cx="151.208" cy="685.233" r="5.07203" fill="#25356A" fill-opacity="0.35"/>
<circle cx="168.115" cy="685.233" r="5.07203" fill="#25356A" fill-opacity="0.35"/>
<circle cx="185.021" cy="685.233" r="5.07203" fill="#25356A" fill-opacity="0.35"/>
<circle cx="201.928" cy="685.233" r="5.07203" fill="#25356A" fill-opacity="0.35"/>
<circle cx="218.835" cy="685.233" r="5.07203" fill="#25356A" fill-opacity="0.35"/>
<circle cx="235.741" cy="685.233" r="5.07203" fill="#25356A" fill-opacity="0.35"/>
<circle cx="252.648" cy="685.233" r="5.07203" fill="#25356A" fill-opacity="0.35"/>
<circle cx="269.555" cy="685.233" r="5.07203" fill="#25356A" fill-opacity="0.35"/>
<circle cx="286.462" cy="685.233" r="5.07203" fill="#25356A" fill-opacity="0.35"/>
<circle cx="303.368" cy="685.233" r="5.07203" fill="#25356A" fill-opacity="0.35"/>
<circle cx="337.182" cy="685.233" r="5.07203" fill="#25356A" fill-opacity="0.35"/>
<circle cx="-0.953357" cy="702.14" r="5.07203" fill="#25356A" fill-opacity="0.35"/>
<circle cx="15.9534" cy="702.14" r="5.07203" fill="#25356A" fill-opacity="0.35"/>
<circle cx="32.8601" cy="702.14" r="5.07203" fill="#25356A" fill-opacity="0.35"/>
<circle cx="49.7669" cy="702.14" r="5.07203" fill="#25356A" fill-opacity="0.35"/>
<circle cx="66.6736" cy="702.14" r="5.07203" fill="#25356A" fill-opacity="0.35"/>
<circle cx="83.5803" cy="702.14" r="5.07203" fill="#25356A" fill-opacity="0.35"/>
<circle cx="100.487" cy="702.14" r="5.07203" fill="#25356A" fill-opacity="0.35"/>
<circle cx="117.394" cy="702.14" r="5.07203" fill="#25356A" fill-opacity="0.35"/>
<circle cx="134.301" cy="702.14" r="5.07203" fill="#25356A" fill-opacity="0.35"/>
<circle cx="151.208" cy="702.14" r="5.07203" fill="#25356A" fill-opacity="0.35"/>
<circle cx="168.115" cy="702.14" r="5.07203" fill="#25356A" fill-opacity="0.35"/>
<circle cx="185.021" cy="702.14" r="5.07203" fill="#25356A" fill-opacity="0.35"/>
<circle cx="201.928" cy="702.14" r="5.07203" fill="#25356A" fill-opacity="0.35"/>
<circle cx="218.835" cy="702.14" r="5.07203" fill="#25356A" fill-opacity="0.35"/>
<circle cx="235.741" cy="702.14" r="5.07203" fill="#25356A" fill-opacity="0.35"/>
<circle cx="252.648" cy="702.14" r="5.07203" fill="#25356A" fill-opacity="0.35"/>
<circle cx="269.555" cy="702.14" r="5.07203" fill="#25356A" fill-opacity="0.35"/>
<circle cx="286.462" cy="702.14" r="5.07203" fill="#25356A" fill-opacity="0.35"/>
<circle cx="303.368" cy="702.14" r="5.07203" fill="#25356A" fill-opacity="0.35"/>
<circle cx="320.276" cy="702.14" r="5.07203" fill="#25356A" fill-opacity="0.35"/>
<circle cx="337.182" cy="702.14" r="5.07203" fill="#25356A" fill-opacity="0.35"/>
<circle cx="-0.953357" cy="719.047" r="5.07203" fill="#25356A" fill-opacity="0.35"/>
<circle cx="15.9534" cy="719.047" r="5.07203" fill="#25356A" fill-opacity="0.35"/>
<circle cx="32.8601" cy="719.047" r="5.07203" fill="#25356A" fill-opacity="0.35"/>
<circle cx="49.7669" cy="719.047" r="5.07203" fill="#25356A" fill-opacity="0.35"/>
<circle cx="66.6736" cy="719.047" r="5.07203" fill="#25356A" fill-opacity="0.35"/>
<circle cx="83.5803" cy="719.047" r="5.07203" fill="#25356A" fill-opacity="0.35"/>
<circle cx="100.487" cy="719.047" r="5.07203" fill="#25356A" fill-opacity="0.35"/>
<circle cx="117.394" cy="719.047" r="5.07203" fill="#25356A" fill-opacity="0.35"/>
<circle cx="134.301" cy="719.047" r="5.07203" fill="#25356A" fill-opacity="0.35"/>
<circle cx="151.208" cy="719.047" r="5.07203" fill="#25356A" fill-opacity="0.35"/>
<circle cx="168.115" cy="719.047" r="5.07203" fill="#25356A" fill-opacity="0.35"/>
<circle cx="185.021" cy="719.047" r="5.07203" fill="#25356A" fill-opacity="0.35"/>
<circle cx="201.928" cy="719.047" r="5.07203" fill="#25356A" fill-opacity="0.35"/>
<circle cx="218.835" cy="719.047" r="5.07203" fill="#25356A" fill-opacity="0.35"/>
<circle cx="235.741" cy="719.047" r="5.07203" fill="#25356A" fill-opacity="0.35"/>
<circle cx="252.648" cy="719.047" r="5.07203" fill="#25356A" fill-opacity="0.35"/>
<circle cx="269.555" cy="719.047" r="5.07203" fill="#25356A" fill-opacity="0.35"/>
<circle cx="286.462" cy="719.047" r="5.07203" fill="#25356A" fill-opacity="0.35"/>
<circle cx="303.368" cy="719.047" r="5.07203" fill="#25356A" fill-opacity="0.35"/>
<circle cx="320.276" cy="719.047" r="5.07203" fill="#25356A" fill-opacity="0.35"/>
<circle cx="-0.953357" cy="735.953" r="5.07203" fill="#25356A" fill-opacity="0.35"/>
<circle cx="15.9534" cy="735.953" r="5.07203" fill="#25356A" fill-opacity="0.35"/>
<circle cx="32.8601" cy="735.953" r="5.07203" fill="#25356A" fill-opacity="0.35"/>
<circle cx="49.7669" cy="735.953" r="5.07203" fill="#25356A" fill-opacity="0.35"/>
<circle cx="66.6736" cy="735.953" r="5.07203" fill="#25356A" fill-opacity="0.35"/>
<circle cx="83.5803" cy="735.953" r="5.07203" fill="#25356A" fill-opacity="0.35"/>
<circle cx="100.487" cy="735.953" r="5.07203" fill="#25356A" fill-opacity="0.35"/>
<circle cx="117.394" cy="735.953" r="5.07203" fill="#25356A" fill-opacity="0.35"/>
<circle cx="134.301" cy="735.953" r="5.07203" fill="#25356A" fill-opacity="0.35"/>
<circle cx="151.208" cy="735.953" r="5.07203" fill="#25356A" fill-opacity="0.35"/>
<circle cx="168.115" cy="735.953" r="5.07203" fill="#25356A" fill-opacity="0.35"/>
<circle cx="185.021" cy="735.953" r="5.07203" fill="#25356A" fill-opacity="0.35"/>
<circle cx="201.928" cy="735.953" r="5.07203" fill="#25356A" fill-opacity="0.35"/>
<circle cx="218.835" cy="735.953" r="5.07203" fill="#25356A" fill-opacity="0.35"/>
<circle cx="235.741" cy="735.953" r="5.07203" fill="#25356A" fill-opacity="0.35"/>
<circle cx="252.648" cy="735.953" r="5.07203" fill="#25356A" fill-opacity="0.35"/>
<circle cx="269.555" cy="735.953" r="5.07203" fill="#25356A" fill-opacity="0.35"/>
<circle cx="286.462" cy="735.953" r="5.07203" fill="#25356A" fill-opacity="0.35"/>
<circle cx="303.368" cy="735.953" r="5.07203" fill="#25356A" fill-opacity="0.35"/>
<circle cx="320.276" cy="735.953" r="5.07203" fill="#25356A" fill-opacity="0.35"/>
<circle cx="-0.953357" cy="752.86" r="5.07203" fill="#25356A" fill-opacity="0.35"/>
<circle cx="15.9534" cy="752.86" r="5.07203" fill="#25356A" fill-opacity="0.35"/>
<circle cx="32.8601" cy="752.86" r="5.07203" fill="#25356A" fill-opacity="0.35"/>
<circle cx="49.7669" cy="752.86" r="5.07203" fill="#25356A" fill-opacity="0.35"/>
<circle cx="66.6736" cy="752.86" r="5.07203" fill="#25356A" fill-opacity="0.35"/>
<circle cx="83.5803" cy="752.86" r="5.07203" fill="#25356A" fill-opacity="0.35"/>
<circle cx="100.487" cy="752.86" r="5.07203" fill="#25356A" fill-opacity="0.35"/>
<circle cx="117.394" cy="752.86" r="5.07203" fill="#25356A" fill-opacity="0.35"/>
<circle cx="134.301" cy="752.86" r="5.07203" fill="#25356A" fill-opacity="0.35"/>
<circle cx="151.208" cy="752.86" r="5.07203" fill="#25356A" fill-opacity="0.35"/>
<circle cx="168.115" cy="752.86" r="5.07203" fill="#25356A" fill-opacity="0.35"/>
<circle cx="185.021" cy="752.86" r="5.07203" fill="#25356A" fill-opacity="0.35"/>
<circle cx="201.928" cy="752.86" r="5.07203" fill="#25356A" fill-opacity="0.35"/>
<circle cx="218.835" cy="752.86" r="5.07203" fill="#25356A" fill-opacity="0.35"/>
<circle cx="235.741" cy="752.86" r="5.07203" fill="#25356A" fill-opacity="0.35"/>
<circle cx="252.648" cy="752.86" r="5.07203" fill="#25356A" fill-opacity="0.35"/>
<circle cx="269.555" cy="752.86" r="5.07203" fill="#25356A" fill-opacity="0.35"/>
<circle cx="286.462" cy="752.86" r="5.07203" fill="#25356A" fill-opacity="0.35"/>
<circle cx="303.368" cy="752.86" r="5.07203" fill="#25356A" fill-opacity="0.35"/>
<circle cx="320.276" cy="752.86" r="5.07203" fill="#25356A" fill-opacity="0.35"/>
<circle cx="337.182" cy="752.86" r="5.07203" fill="#25356A" fill-opacity="0.35"/>
<circle cx="-0.953357" cy="769.767" r="5.07203" fill="#25356A" fill-opacity="0.35"/>
<circle cx="15.9534" cy="769.767" r="5.07203" fill="#25356A" fill-opacity="0.35"/>
<circle cx="32.8601" cy="769.767" r="5.07203" fill="#25356A" fill-opacity="0.35"/>
<circle cx="49.7669" cy="769.767" r="5.07203" fill="#25356A" fill-opacity="0.35"/>
<circle cx="66.6736" cy="769.767" r="5.07203" fill="#25356A" fill-opacity="0.35"/>
<circle cx="83.5803" cy="769.767" r="5.07203" fill="#25356A" fill-opacity="0.35"/>
<circle cx="100.487" cy="769.767" r="5.07203" fill="#25356A" fill-opacity="0.35"/>
<circle cx="117.394" cy="769.767" r="5.07203" fill="#25356A" fill-opacity="0.35"/>
<circle cx="134.301" cy="769.767" r="5.07203" fill="#25356A" fill-opacity="0.35"/>
<circle cx="151.208" cy="769.767" r="5.07203" fill="#25356A" fill-opacity="0.35"/>
<circle cx="168.115" cy="769.767" r="5.07203" fill="#25356A" fill-opacity="0.35"/>
<circle cx="185.021" cy="769.767" r="5.07203" fill="#25356A" fill-opacity="0.35"/>
<circle cx="201.928" cy="769.767" r="5.07203" fill="#25356A" fill-opacity="0.35"/>
<circle cx="218.835" cy="769.767" r="5.07203" fill="#25356A" fill-opacity="0.35"/>
<circle cx="235.741" cy="769.767" r="5.07203" fill="#25356A" fill-opacity="0.35"/>
<circle cx="252.648" cy="769.767" r="5.07203" fill="#25356A" fill-opacity="0.35"/>
<circle cx="269.555" cy="769.767" r="5.07203" fill="#25356A" fill-opacity="0.35"/>
<circle cx="286.462" cy="769.767" r="5.07203" fill="#25356A" fill-opacity="0.35"/>
<circle cx="303.368" cy="769.767" r="5.07203" fill="#25356A" fill-opacity="0.35"/>
<circle cx="320.276" cy="769.767" r="5.07203" fill="#25356A" fill-opacity="0.35"/>
<circle cx="-0.953357" cy="786.674" r="5.07203" fill="#25356A" fill-opacity="0.35"/>
<circle cx="15.9534" cy="786.674" r="5.07203" fill="#25356A" fill-opacity="0.35"/>
<circle cx="32.8601" cy="786.674" r="5.07203" fill="#25356A" fill-opacity="0.35"/>
<circle cx="49.7669" cy="786.674" r="5.07203" fill="#25356A" fill-opacity="0.35"/>
<circle cx="66.6736" cy="786.674" r="5.07203" fill="#25356A" fill-opacity="0.35"/>
<circle cx="83.5803" cy="786.674" r="5.07203" fill="#25356A" fill-opacity="0.35"/>
<circle cx="100.487" cy="786.674" r="5.07203" fill="#25356A" fill-opacity="0.35"/>
<circle cx="117.394" cy="786.674" r="5.07203" fill="#25356A" fill-opacity="0.35"/>
<circle cx="134.301" cy="786.674" r="5.07203" fill="#25356A" fill-opacity="0.35"/>
<circle cx="151.208" cy="786.674" r="5.07203" fill="#25356A" fill-opacity="0.35"/>
<circle cx="168.115" cy="786.674" r="5.07203" fill="#25356A" fill-opacity="0.35"/>
<circle cx="185.021" cy="786.674" r="5.07203" fill="#25356A" fill-opacity="0.35"/>
<circle cx="201.928" cy="786.674" r="5.07203" fill="#25356A" fill-opacity="0.35"/>
<circle cx="218.835" cy="786.674" r="5.07203" fill="#25356A" fill-opacity="0.35"/>
<circle cx="235.741" cy="786.674" r="5.07203" fill="#25356A" fill-opacity="0.35"/>
<circle cx="252.648" cy="786.674" r="5.07203" fill="#25356A" fill-opacity="0.35"/>
<circle cx="269.555" cy="786.674" r="5.07203" fill="#25356A" fill-opacity="0.35"/>
<circle cx="286.462" cy="786.674" r="5.07203" fill="#25356A" fill-opacity="0.35"/>
<circle cx="303.368" cy="786.674" r="5.07203" fill="#25356A" fill-opacity="0.35"/>
<circle cx="320.276" cy="786.674" r="5.07203" fill="#25356A" fill-opacity="0.35"/>
</g>
<g opacity="0.91" filter="url(#filter1_d_31_12075)">
<path d="M1228.79 537.971C1155.91 852.466 1299.36 874.701 1313.11 876.102C1313.86 876.179 1314.5 875.998 1315.17 875.635L1495.13 777.074C1626.3 705.238 1681.13 533.697 1563.43 441.433C1503.05 394.104 1428.41 361.186 1343.17 375.107C1223.15 394.709 1234.7 512.503 1228.79 537.971Z" fill="#5E80D6"/>
</g>
<g opacity="0.91" filter="url(#filter2_d_31_12075)">
<path d="M-263.676 388.566C-300.089 545.701 -282.394 629.565 -254.132 674.282C-225.888 718.97 -186.941 724.794 -180.235 725.477C-179.731 725.528 -179.288 725.418 -178.757 725.128L1.21028 626.567C66.5648 590.775 112.872 530.154 128.191 467.048C143.5 403.979 127.867 338.448 69.3664 292.59C9.11927 245.362 -65.2421 212.604 -150.107 226.464C-179.945 231.337 -201.547 242.301 -217.279 256.358C-233.016 270.421 -242.93 287.626 -249.316 305.053C-255.703 322.485 -258.553 340.119 -260.172 355.014C-260.806 360.849 -261.251 366.253 -261.647 371.065C-261.756 372.396 -261.862 373.682 -261.967 374.919C-262.449 380.599 -262.919 385.3 -263.676 388.566Z" stroke="#4F4F4F" stroke-width="2"/>
</g>
<g opacity="0.91" filter="url(#filter3_d_31_12075)">
<path d="M-255.206 405.971C-328.085 720.466 -184.638 742.701 -170.893 744.102C-170.141 744.179 -169.496 743.998 -168.834 743.635L11.134 645.074C142.303 573.238 197.125 401.697 79.4267 309.433C19.0503 262.104 -55.5877 229.186 -140.825 243.107C-260.848 262.709 -249.305 380.503 -255.206 405.971Z" fill="#5E80D6"/>
</g>
<defs>
<filter id="filter0_d_31_12075" x="1162.85" y="318.292" width="532.692" height="617.034" filterUnits="userSpaceOnUse" color-interpolation-filters="sRGB">
<feFlood flood-opacity="0" result="BackgroundImageFix"/>
<feColorMatrix in="SourceAlpha" type="matrix" values="0 0 0 0 0 0 0 0 0 0 0 0 0 0 0 0 0 0 127 0" result="hardAlpha"/>
<feOffset dx="20.4354" dy="20.4354"/>
<feGaussianBlur stdDeviation="28.2009"/>
<feColorMatrix type="matrix" values="0 0 0 0 0 0 0 0 0 0 0 0 0 0 0 0 0 0 0.04 0"/>
<feBlend mode="normal" in2="BackgroundImageFix" result="effect1_dropShadow_31_12075"/>
<feBlend mode="normal" in="SourceGraphic" in2="effect1_dropShadow_31_12075" result="shape"/>
</filter>
<filter id="filter1_d_31_12075" x="1172.29" y="335.922" width="532.692" height="617.034" filterUnits="userSpaceOnUse" color-interpolation-filters="sRGB">
<feFlood flood-opacity="0" result="BackgroundImageFix"/>
<feColorMatrix in="SourceAlpha" type="matrix" values="0 0 0 0 0 0 0 0 0 0 0 0 0 0 0 0 0 0 127 0" result="hardAlpha"/>
<feOffset dx="20.4354" dy="20.4354"/>
<feGaussianBlur stdDeviation="28.2009"/>
<feColorMatrix type="matrix" values="0 0 0 0 0 0 0 0 0 0 0 0 0 0 0 0 0 0 0.04 0"/>
<feBlend mode="normal" in2="BackgroundImageFix" result="effect1_dropShadow_31_12075"/>
<feBlend mode="normal" in="SourceGraphic" in2="effect1_dropShadow_31_12075" result="shape"/>
</filter>
<filter id="filter2_d_31_12075" x="-321.153" y="186.292" width="532.692" height="617.034" filterUnits="userSpaceOnUse" color-interpolation-filters="sRGB">
<feFlood flood-opacity="0" result="BackgroundImageFix"/>
<feColorMatrix in="SourceAlpha" type="matrix" values="0 0 0 0 0 0 0 0 0 0 0 0 0 0 0 0 0 0 127 0" result="hardAlpha"/>
<feOffset dx="20.4354" dy="20.4354"/>
<feGaussianBlur stdDeviation="28.2009"/>
<feColorMatrix type="matrix" values="0 0 0 0 0 0 0 0 0 0 0 0 0 0 0 0 0 0 0.04 0"/>
<feBlend mode="normal" in2="BackgroundImageFix" result="effect1_dropShadow_31_12075"/>
<feBlend mode="normal" in="SourceGraphic" in2="effect1_dropShadow_31_12075" result="shape"/>
</filter>
<filter id="filter3_d_31_12075" x="-311.709" y="203.922" width="532.692" height="617.034" filterUnits="userSpaceOnUse" color-interpolation-filters="sRGB">
<feFlood flood-opacity="0" result="BackgroundImageFix"/>
<feColorMatrix in="SourceAlpha" type="matrix" values="0 0 0 0 0 0 0 0 0 0 0 0 0 0 0 0 0 0 127 0" result="hardAlpha"/>
<feOffset dx="20.4354" dy="20.4354"/>
<feGaussianBlur stdDeviation="28.2009"/>
<feColorMatrix type="matrix" values="0 0 0 0 0 0 0 0 0 0 0 0 0 0 0 0 0 0 0.04 0"/>
<feBlend mode="normal" in2="BackgroundImageFix" result="effect1_dropShadow_31_12075"/>
<feBlend mode="normal" in="SourceGraphic" in2="effect1_dropShadow_31_12075" result="shape"/>
</filter>
</defs>
</svg>
