<svg width="631" height="84" viewBox="0 0 631 84" fill="none" xmlns="http://www.w3.org/2000/svg">
<path d="M34.9107 61.016L0.774943 38.1985V31.6792L34.9107 8.86164V17.2824L8.47133 34.7577V35.1199L34.9107 52.5952V61.016ZM51.8074 65V5.69254H66.838C72.7536 5.69254 77.7638 6.80927 81.8686 9.04273C86.0337 11.2762 89.2028 14.5962 91.3759 19.0028C93.549 23.349 94.6355 28.7213 94.6355 35.1199C94.6355 41.5185 93.549 46.9512 91.3759 51.4181C89.2028 55.8851 86.094 59.2654 82.0496 61.5593C78.0053 63.8531 73.0856 65 67.2907 65H51.8074ZM60.8619 57.6658H66.2947C70.4598 57.6658 73.9307 56.8207 76.7074 55.1305C79.5445 53.38 81.6875 50.8447 83.1362 47.5247C84.5849 44.2047 85.3093 40.0697 85.3093 35.1199C85.3093 30.1701 84.5849 26.0653 83.1362 22.8057C81.6875 19.546 79.5445 17.1013 76.7074 15.4715C73.9307 13.8417 70.4598 13.0267 66.2947 13.0267H60.8619V57.6658ZM126.02 66.0865C121.794 66.0865 117.81 65.3018 114.067 63.7324C110.325 62.1629 107.065 60.02 104.289 57.3036L109.54 51.1465C111.834 53.2592 114.43 54.9796 117.327 56.3076C120.225 57.5752 123.303 58.2091 126.563 58.2091C130.305 58.2091 133.203 57.4243 135.255 55.8549C137.308 54.2854 138.334 52.2934 138.334 49.8789C138.334 47.9472 137.881 46.4079 136.976 45.261C136.07 44.1141 134.833 43.1483 133.263 42.3636C131.754 41.5788 130.004 40.7941 128.012 40.0094L119.681 36.297C117.689 35.5123 115.697 34.4861 113.705 33.2184C111.774 31.8904 110.174 30.2304 108.906 28.2384C107.639 26.1861 107.005 23.7111 107.005 20.8137C107.005 17.7351 107.85 14.9886 109.54 12.574C111.23 10.0991 113.585 8.16746 116.603 6.77909C119.621 5.33035 123.092 4.60599 127.016 4.60599C130.698 4.60599 134.138 5.30017 137.338 6.68854C140.537 8.01654 143.284 9.79728 145.577 12.0307L140.869 17.8257C138.937 16.1355 136.825 14.8377 134.531 13.9322C132.297 12.9664 129.641 12.4835 126.563 12.4835C123.484 12.4835 120.979 13.1777 119.047 14.566C117.116 15.9544 116.15 17.8558 116.15 20.2704C116.15 22.021 116.633 23.4395 117.599 24.5261C118.625 25.6126 119.923 26.5181 121.492 27.2424C123.122 27.9668 124.782 28.6912 126.472 29.4155L134.531 32.9468C137.006 33.9126 139.209 35.0897 141.141 36.4781C143.133 37.8061 144.702 39.4661 145.849 41.4581C146.996 43.4501 147.569 45.8948 147.569 48.7923C147.569 51.9916 146.694 54.9192 144.944 57.5752C143.253 60.1709 140.778 62.2534 137.519 63.8229C134.32 65.332 130.486 66.0865 126.02 66.0865ZM155.23 65L174.788 5.69254H185.292L204.849 65H195.252L185.654 32.6752C184.688 29.4155 183.722 26.1559 182.756 22.8962C181.851 19.5762 180.945 16.2562 180.04 12.9362H179.678C178.833 16.2562 177.927 19.5762 176.961 22.8962C176.056 26.1559 175.12 29.4155 174.154 32.6752L164.466 65H155.23ZM166.186 47.9774V40.8243H193.712V47.9774H166.186ZM238.407 66.0865C233.819 66.0865 229.684 65.1811 226.002 63.3702C222.32 61.5593 219.392 58.9334 217.219 55.4927C215.106 51.9916 214.05 47.7963 214.05 42.9068C214.05 38.0174 215.197 33.8523 217.491 30.4115C219.784 26.9104 222.803 24.2544 226.545 22.4435C230.348 20.5722 234.483 19.6366 238.95 19.6366C242.572 19.6366 245.741 20.2704 248.457 21.538C251.174 22.7453 253.437 24.2242 255.248 25.9748L250.902 31.6792C249.091 30.2304 247.25 29.1137 245.379 28.329C243.568 27.4839 241.576 27.0613 239.403 27.0613C236.264 27.0613 233.457 27.7253 230.982 29.0533C228.567 30.3813 226.666 32.2526 225.277 34.6672C223.949 37.0214 223.285 39.7679 223.285 42.9068C223.285 46.1061 223.949 48.8829 225.277 51.237C226.605 53.5912 228.447 55.4323 230.801 56.7603C233.215 58.0883 235.992 58.7523 239.131 58.7523C241.787 58.7523 244.201 58.2393 246.375 57.2131C248.548 56.1869 250.51 54.9494 252.26 53.5007L256.154 59.2956C253.679 61.4687 250.902 63.1589 247.823 64.3662C244.805 65.5131 241.666 66.0865 238.407 66.0865ZM283.282 66.0865C280.445 66.0865 277.879 65.5735 275.585 64.5473C273.352 63.4607 271.571 61.9818 270.243 60.1105C268.976 58.1789 268.342 55.9152 268.342 53.3196C268.342 48.3698 270.756 44.597 275.585 42.0014C280.475 39.4057 288.473 37.6854 299.58 36.8403C299.52 35.0294 299.097 33.3694 298.312 31.8603C297.588 30.3512 296.411 29.1741 294.781 28.329C293.212 27.4235 291.129 26.9708 288.534 26.9708C286.723 26.9708 284.942 27.2122 283.191 27.6952C281.441 28.1177 279.751 28.7213 278.121 29.5061C276.491 30.2908 274.952 31.1057 273.503 31.9508L270.153 25.8842C271.783 24.9184 273.654 23.9526 275.767 22.9868C277.879 21.9606 280.143 21.1457 282.558 20.542C285.032 19.9384 287.538 19.6366 290.073 19.6366C294.178 19.6366 297.588 20.3911 300.304 21.9002C303.021 23.4093 305.073 25.5522 306.462 28.329C307.85 31.1057 308.544 34.4559 308.544 38.3796V65H301.21L300.486 59.2956H300.214C297.86 61.1065 295.204 62.7062 292.246 64.0945C289.288 65.4225 286.3 66.0865 283.282 66.0865ZM285.817 58.9334C288.171 58.9334 290.495 58.4203 292.789 57.3942C295.083 56.368 297.347 54.9192 299.58 53.048V42.5447C293.785 42.9672 289.228 43.6312 285.908 44.5367C282.648 45.4421 280.354 46.589 279.026 47.9774C277.698 49.3054 277.034 50.8749 277.034 52.6858C277.034 54.1345 277.427 55.3418 278.211 56.3076C279.056 57.2131 280.143 57.8771 281.471 58.2996C282.799 58.7222 284.248 58.9334 285.817 58.9334ZM339.928 66.0865C334.194 66.0865 329.576 64.0644 326.075 60.02C322.574 55.9152 320.823 50.2109 320.823 42.9068C320.823 38.1381 321.759 34.0334 323.63 30.5926C325.562 27.0915 328.036 24.4053 331.055 22.534C334.073 20.6024 337.272 19.6366 340.653 19.6366C343.248 19.6366 345.572 20.1195 347.625 21.0853C349.677 22.0511 351.578 23.4093 353.329 25.1599H353.601L353.148 17.2824V0.803067H362.112V65H354.778L354.053 59.5673H353.782C352.031 61.3178 349.949 62.8571 347.534 64.1851C345.119 65.4527 342.584 66.0865 339.928 66.0865ZM342.011 58.6618C344.003 58.6618 345.904 58.1789 347.715 57.2131C349.586 56.1869 351.397 54.6778 353.148 52.6858V31.6792C351.397 30.0493 349.647 28.9024 347.896 28.2384C346.146 27.5141 344.395 27.1519 342.645 27.1519C340.351 27.1519 338.238 27.7857 336.306 29.0533C334.435 30.321 332.926 32.1319 331.779 34.4861C330.632 36.8403 330.059 39.617 330.059 42.8163C330.059 47.8869 331.115 51.8105 333.228 54.5872C335.341 57.3036 338.268 58.6618 342.011 58.6618ZM399.925 66.0865C395.458 66.0865 391.383 65.1811 387.701 63.3702C384.079 61.5593 381.212 58.9033 379.099 55.4022C376.986 51.901 375.93 47.7058 375.93 42.8163C375.93 37.9872 376.986 33.8523 379.099 30.4115C381.272 26.9708 384.079 24.3148 387.52 22.4435C390.961 20.5722 394.643 19.6366 398.566 19.6366C402.913 19.6366 406.595 20.542 409.613 22.353C412.631 24.1035 414.925 26.5482 416.494 29.6872C418.124 32.7657 418.939 36.3875 418.939 40.5526C418.939 41.4581 418.909 42.3636 418.849 43.269C418.788 44.1141 418.698 44.8385 418.577 45.4421H382.178V38.8323H412.963L410.971 41.0054C410.971 36.2366 409.885 32.6752 407.712 30.321C405.538 27.9064 402.581 26.6992 398.838 26.6992C396.242 26.6992 393.858 27.333 391.685 28.6006C389.572 29.8079 387.882 31.6188 386.614 34.0334C385.347 36.3875 384.713 39.3152 384.713 42.8163C384.713 46.4381 385.407 49.4563 386.795 51.8709C388.244 54.2251 390.176 56.0058 392.59 57.2131C395.065 58.4203 397.902 59.024 401.102 59.024C403.577 59.024 405.84 58.692 407.893 58.028C409.945 57.3036 411.967 56.3378 413.959 55.1305L417.128 60.8349C414.895 62.344 412.329 63.6116 409.432 64.6378C406.534 65.6036 403.365 66.0865 399.925 66.0865ZM429.045 65V20.7231H436.108L436.832 26.5181H437.013C438.1 24.5261 439.397 22.8962 440.906 21.6286C442.416 20.3006 444.438 19.6366 446.973 19.6366C449.086 19.6366 450.836 20.2704 452.225 21.538C453.613 22.8057 454.579 24.7071 455.122 27.2424C456.329 24.9486 457.688 23.1075 459.197 21.7191C460.766 20.3308 462.819 19.6366 465.354 19.6366C468.493 19.6366 470.907 20.8439 472.597 23.2584C474.348 25.673 475.223 29.0835 475.223 33.4901V65H466.44V34.1239C466.44 29.5966 465.082 27.333 462.366 27.333C461.038 27.333 459.921 27.8461 459.016 28.8722C458.11 29.8984 457.114 31.4377 456.028 33.4901V65H448.241V34.1239C448.241 31.8904 447.909 30.2003 447.245 29.0533C446.641 27.9064 445.645 27.333 444.257 27.333C442.929 27.333 441.752 27.8461 440.725 28.8722C439.76 29.8984 438.794 31.4377 437.828 33.4901V65H429.045ZM490.762 83.5619C489.675 83.5619 488.589 83.4713 487.502 83.2902C486.416 83.1091 485.48 82.8979 484.695 82.6564L486.506 75.6844C487.049 75.8655 487.653 76.0164 488.317 76.1371C488.981 76.2579 489.645 76.3182 490.309 76.3182C493.267 76.3182 495.651 75.5033 497.462 73.8735C499.273 72.2437 500.692 70.2215 501.718 67.8069L502.895 64.7284L482.703 20.7231H491.667L501.627 43.8123C502.412 45.8043 503.227 47.917 504.072 50.1505C504.977 52.3236 505.883 54.5269 506.788 56.7603H507.151C507.875 54.6476 508.629 52.4745 509.414 50.241C510.199 47.9472 510.953 45.8043 511.678 43.8123L520.461 20.7231H528.972L510.048 67.8069C508.901 70.9458 507.483 73.6924 505.792 76.0466C504.102 78.4008 502.02 80.2419 499.545 81.5699C497.13 82.8979 494.203 83.5619 490.762 83.5619ZM541.341 79.4873L571.04 0.712522H578.827L549.128 79.4873H541.341ZM596.63 61.016V52.5952L623.069 35.1199V34.7577L596.63 17.2824V8.86164L630.765 31.6792V38.1985L596.63 61.016Z" fill="#3466F6"/>
</svg>
